<svg xmlns="http://www.w3.org/2000/svg" viewBox="0 0 512 512">
  <!-- Font Awesome Free 6.5.1 by @fontawesome - https://fontawesome.com License - https://fontawesome.com/license/free Copyright 2024 Fonticons, Inc. -->
  <path fill="#3B82F6" d="M256 0c-17.7 0-32 14.3-32 32V66.7C149.6 73.3 96 135 96 208v18.8c0 47-17.3 92.4-48.5 127.6l-7.4 8.3c-8.4 9.4-10.4 22.9-5.1 34.4S51.2 416 64 416H192c0 53 43 96 96 96s96-43 96-96H448c12.8 0 24.6-7.2 30.5-18.7s3.3-25-5.1-34.4l-7.4-8.3C434.7 319.2 416 273.9 416 226.8V208c0-73-53.6-134.7-128-141.3V32c0-17.7-14.3-32-32-32zm0 96h0c61.9 0 112 50.1 112 112v18.8c0 52.3 19.2 103 54.3 142.2H89.7c35-39.2 54.3-89.9 54.3-142.2V208c0-61.9 50.1-112 112-112zm64 352c0 35.3-28.7 64-64 64s-64-28.7-64-64H320z"/>
</svg> 